<?xml version="1.0" encoding="UTF-8" standalone="no"?>
<!DOCTYPE svg PUBLIC "-//W3C//DTD SVG 1.1//EN" "http://www.w3.org/Graphics/SVG/1.1/DTD/svg11.dtd">
<svg width="100%" height="100%" viewBox="0 0 86 86" version="1.1" xmlns="http://www.w3.org/2000/svg" xmlns:xlink="http://www.w3.org/1999/xlink" xml:space="preserve" xmlns:serif="http://www.serif.com/" style="fill-rule:evenodd;clip-rule:evenodd;">
    <circle cx="43" cy="43" r="40" style="fill:none;stroke:black;stroke-width:6px;"/>
    <g transform="matrix(0.781283,0,0,0.781283,9.40481,18.1535)">
        <g transform="matrix(3.41084,0,0,3.41084,-103.666,-114.864)">
            <circle cx="43" cy="43" r="3.223"/>
        </g>
        <g transform="matrix(0.588374,0.954418,-2.05636,1.26769,109.26,-65.2126)">
            <path d="M68.788,44.612C68.788,43.722 67.232,43 65.316,43L46.472,43C44.556,43 43,43.722 43,44.612C43,45.501 44.556,46.223 46.472,46.223L65.316,46.223C67.232,46.223 68.788,45.501 68.788,44.612Z"/>
        </g>
        <g transform="matrix(0.710648,-1.12113,1.92845,1.22238,-73.907,24.9068)">
            <path d="M68.788,44.612C68.788,43.722 67.546,43 66.016,43L45.772,43C44.242,43 43,43.722 43,44.612C43,45.501 44.242,46.223 45.772,46.223L66.016,46.223C67.546,46.223 68.788,45.501 68.788,44.612Z"/>
        </g>
    </g>
</svg>
