<?xml version="1.0" encoding="UTF-8" standalone="no"?>
<!DOCTYPE svg PUBLIC "-//W3C//DTD SVG 1.1//EN" "http://www.w3.org/Graphics/SVG/1.1/DTD/svg11.dtd">
<svg width="100%" height="100%" viewBox="0 0 16138 10971" version="1.1" xmlns="http://www.w3.org/2000/svg" xmlns:xlink="http://www.w3.org/1999/xlink" xml:space="preserve" xmlns:serif="http://www.serif.com/" style="fill-rule:evenodd;clip-rule:evenodd;stroke-linejoin:round;stroke-miterlimit:2;">
    <g transform="matrix(4.16667,0,0,4.16667,0,0)">
        <g transform="matrix(0.324591,0.233267,-0.233267,0.324591,345.769,-1859.61)">
            <circle cx="7247.14" cy="4792.36" r="265.842"/>
        </g>
        <g transform="matrix(-0.24794,-0.192497,0.192497,-0.24794,2035.18,4492.83)">
            <circle cx="7247.14" cy="4792.36" r="265.842"/>
        </g>
        <g transform="matrix(-0.268245,-0.163016,0.163016,-0.268245,2415.11,3760.06)">
            <circle cx="7247.14" cy="4792.36" r="265.842"/>
        </g>
        <g transform="matrix(-0.290261,0.119491,-0.119491,-0.290261,6074.13,1880.59)">
            <circle cx="7247.14" cy="4792.36" r="265.842"/>
        </g>
        <g transform="matrix(0.605405,0,0,0.605405,-1704.67,-1339.03)">
            <circle cx="7247.14" cy="4792.36" r="265.842"/>
        </g>
        <g transform="matrix(0.782579,0,0,0.782579,-3464.1,-2894.44)">
            <circle cx="7247.14" cy="4792.36" r="265.842"/>
        </g>
        <g transform="matrix(-0.375527,-0.291554,0.291554,-0.375527,1950.87,5202.39)">
            <circle cx="7247.14" cy="4792.36" r="265.842"/>
        </g>
        <g transform="matrix(0.015113,-0.199286,0.199286,0.015113,613.697,3232.88)">
            <circle cx="7247.14" cy="4792.36" r="265.842"/>
        </g>
        <g transform="matrix(-0.0531506,-0.147673,0.147673,-0.0531506,731.678,2779.91)">
            <circle cx="7247.14" cy="4792.36" r="265.842"/>
        </g>
        <g transform="matrix(-0.134122,-0.0815081,0.0815081,-0.134122,1783.58,2192.7)">
            <circle cx="7247.14" cy="4792.36" r="265.842"/>
        </g>
        <g transform="matrix(-0.14513,0.0597457,-0.0597457,-0.14513,4437.34,1460.61)">
            <circle cx="7247.14" cy="4792.36" r="265.842"/>
        </g>
        <g transform="matrix(0.231665,0,0,0.231665,543.502,290.563)">
            <circle cx="7247.14" cy="4792.36" r="265.842"/>
        </g>
        <g transform="matrix(0.299462,0,0,0.299462,-557.988,-787.94)">
            <circle cx="7247.14" cy="4792.36" r="265.842"/>
        </g>
        <g transform="matrix(-0.143699,-0.111566,0.111566,-0.143699,1341.14,3108.89)">
            <circle cx="7247.14" cy="4792.36" r="265.842"/>
        </g>
        <g transform="matrix(0.160712,0,0,0.160712,1096.6,995.766)">
            <circle cx="7247.14" cy="4792.36" r="265.842"/>
        </g>
        <g transform="matrix(0.1687,0.121236,-0.121236,0.1687,1077.76,-492.337)">
            <circle cx="7247.14" cy="4792.36" r="265.842"/>
        </g>
        <g transform="matrix(-0.0427401,-0.118749,0.118749,-0.0427401,767.416,2259.46)">
            <circle cx="7247.14" cy="4792.36" r="265.842"/>
        </g>
        <g transform="matrix(-0.126183,0.00240577,-0.00240577,-0.126183,1678.59,1603.79)">
            <circle cx="7247.14" cy="4792.36" r="265.842"/>
        </g>
        <g transform="matrix(-0.116704,0.0480433,-0.0480433,-0.116704,3915.81,1448.34)">
            <circle cx="7247.14" cy="4792.36" r="265.842"/>
        </g>
        <g transform="matrix(-0.150857,0.0621033,-0.0621033,-0.150857,3801.24,708.661)">
            <circle cx="7247.14" cy="4792.36" r="265.842"/>
        </g>
        <g transform="matrix(0.0175182,-0.231001,0.231001,0.0175182,883.54,3546.27)">
            <circle cx="7247.14" cy="4792.36" r="265.842"/>
        </g>
        <g transform="matrix(-0.0616093,-0.171175,0.171175,-0.0616093,1051.76,2723.68)">
            <circle cx="7247.14" cy="4792.36" r="265.842"/>
        </g>
        <g transform="matrix(-0.181891,0.00346789,-0.00346789,-0.181891,2385.05,1570.29)">
            <circle cx="7247.14" cy="4792.36" r="265.842"/>
        </g>
        <g transform="matrix(-0.168227,0.0692538,-0.0692538,-0.168227,4561.93,1160.69)">
            <circle cx="7247.14" cy="4792.36" r="265.842"/>
        </g>
        <g transform="matrix(0.190518,-0.1318,0.1318,0.190518,-424.335,2069.51)">
            <circle cx="7247.14" cy="4792.36" r="265.842"/>
        </g>
        <g transform="matrix(-0.148052,-0.105721,0.105721,-0.148052,1913.23,3225.62)">
            <circle cx="7247.14" cy="4792.36" r="265.842"/>
        </g>
        <g transform="matrix(0.231665,0,0,0.231665,950.254,-4.29048)">
            <circle cx="7247.14" cy="4792.36" r="265.842"/>
        </g>
        <g transform="matrix(0.299462,0,0,0.299462,-32.1981,-1169.08)">
            <circle cx="7247.14" cy="4792.36" r="265.842"/>
        </g>
        <g transform="matrix(-0.143699,-0.111566,0.111566,-0.143699,946.838,3095.9)">
            <circle cx="7247.14" cy="4792.36" r="265.842"/>
        </g>
        <g transform="matrix(0.155819,0,0,0.155819,512.04,968.178)">
            <circle cx="7247.14" cy="4792.36" r="265.842"/>
        </g>
        <g transform="matrix(-0.0414386,-0.115133,0.115133,-0.0414386,902.489,2698.72)">
            <circle cx="7247.14" cy="4792.36" r="265.842"/>
        </g>
        <g transform="matrix(-0.0478296,-0.112628,0.112628,-0.0478296,1357.18,2046.47)">
            <circle cx="7247.14" cy="4792.36" r="265.842"/>
        </g>
        <g transform="matrix(-0.11315,0.0465804,-0.0465804,-0.11315,4348.55,1293.62)">
            <circle cx="7247.14" cy="4792.36" r="265.842"/>
        </g>
        <g transform="matrix(0.155819,0,0,0.155819,766.16,384.157)">
            <circle cx="7247.14" cy="4792.36" r="265.842"/>
        </g>
        <g transform="matrix(-0.0966527,-0.0750397,0.0750397,-0.0966527,1248.1,2943.6)">
            <circle cx="7247.14" cy="4792.36" r="265.842"/>
        </g>
        <g transform="matrix(0.155819,0,0,0.155819,911.502,597.761)">
            <circle cx="7247.14" cy="4792.36" r="265.842"/>
        </g>
        <g transform="matrix(0.201419,0,0,0.201419,120.03,-735.303)">
            <circle cx="7247.14" cy="4792.36" r="265.842"/>
        </g>
        <g transform="matrix(-0.0966527,-0.0750397,0.0750397,-0.0966527,1035.4,2831.03)">
            <circle cx="7247.14" cy="4792.36" r="265.842"/>
        </g>
        <g transform="matrix(0.119119,0,0,0.119119,382.568,266.068)">
            <circle cx="7247.14" cy="4792.36" r="265.842"/>
        </g>
        <g transform="matrix(0.0926805,-0.0748305,0.0748305,0.0926805,-408.276,539.519)">
            <circle cx="7247.14" cy="4792.36" r="265.842"/>
        </g>
        <g transform="matrix(0.0591977,-0.103368,0.103368,0.0591977,1584.97,1214.13)">
            <circle cx="7247.14" cy="4792.36" r="265.842"/>
        </g>
        <g transform="matrix(-0.0738882,-0.0573657,0.0573657,-0.0738882,1429.17,3201.59)">
            <circle cx="7247.14" cy="4792.36" r="265.842"/>
        </g>
        <g transform="matrix(-0.0759002,0.0546758,-0.0546758,-0.0759002,2279.09,1684.42)">
            <circle cx="7247.14" cy="4792.36" r="265.842"/>
        </g>
        <g transform="matrix(-0.0865001,0.0356094,-0.0356094,-0.0865001,3408.04,2226.69)">
            <circle cx="7247.14" cy="4792.36" r="265.842"/>
        </g>
        <g transform="matrix(0.044463,0.110509,-0.110509,0.044463,1850.92,99.7384)">
            <circle cx="7247.14" cy="4792.36" r="265.842"/>
        </g>
        <g transform="matrix(0.0926805,-0.0748305,0.0748305,0.0926805,-200.044,584.661)">
            <circle cx="7247.14" cy="4792.36" r="265.842"/>
        </g>
        <g transform="matrix(0.0591977,-0.103368,0.103368,0.0591977,1795.39,1180.61)">
            <circle cx="7247.14" cy="4792.36" r="265.842"/>
        </g>
        <g transform="matrix(-0.0738882,-0.0573657,0.0573657,-0.0738882,1426.17,3034.29)">
            <circle cx="7247.14" cy="4792.36" r="265.842"/>
        </g>
        <g transform="matrix(-0.0799391,-0.0485802,0.0485802,-0.0799391,1644,2380.34)">
            <circle cx="7247.14" cy="4792.36" r="265.842"/>
        </g>
        <g transform="matrix(-0.0865001,0.0356094,-0.0356094,-0.0865001,3261.37,2146.15)">
            <circle cx="7247.14" cy="4792.36" r="265.842"/>
        </g>
        <g transform="matrix(0.119119,0,0,0.119119,876.998,112.844)">
            <circle cx="7247.14" cy="4792.36" r="265.842"/>
        </g>
        <g transform="matrix(-0.0738882,-0.0573657,0.0573657,-0.0738882,1048.69,3058.52)">
            <circle cx="7247.14" cy="4792.36" r="265.842"/>
        </g>
        <g transform="matrix(0.119119,0,0,0.119119,903.173,389.178)">
            <circle cx="7247.14" cy="4792.36" r="265.842"/>
        </g>
        <g transform="matrix(-0.0738882,-0.0573657,0.0573657,-0.0738882,1165.53,2874.51)">
            <circle cx="7247.14" cy="4792.36" r="265.842"/>
        </g>
        <g transform="matrix(0.119119,0,0,0.119119,1266.9,224.428)">
            <circle cx="7247.14" cy="4792.36" r="265.842"/>
        </g>
        <g transform="matrix(-0.0738882,-0.0573657,0.0573657,-0.0738882,860.575,2801.53)">
            <circle cx="7247.14" cy="4792.36" r="265.842"/>
        </g>
        <g transform="matrix(0.0555062,0,0,0.0555062,1654.14,668.969)">
            <circle cx="7247.14" cy="4792.36" r="265.842"/>
        </g>
        <g transform="matrix(-0.0344299,-0.0267309,0.0267309,-0.0344299,834.456,2339.3)">
            <circle cx="7247.14" cy="4792.36" r="265.842"/>
        </g>
    </g>
</svg>
