<?xml version="1.0" encoding="UTF-8" standalone="no"?>
<!DOCTYPE svg PUBLIC "-//W3C//DTD SVG 1.1//EN" "http://www.w3.org/Graphics/SVG/1.1/DTD/svg11.dtd">
<svg width="100%" height="100%" viewBox="0 0 16138 10971" version="1.1" xmlns="http://www.w3.org/2000/svg" xmlns:xlink="http://www.w3.org/1999/xlink" xml:space="preserve" xmlns:serif="http://www.serif.com/" style="fill-rule:evenodd;clip-rule:evenodd;stroke-linejoin:round;stroke-miterlimit:2;">
    <g transform="matrix(4.16667,0,0,4.16667,0,0)">
        <g transform="matrix(0.357313,0.256782,-0.256782,0.357313,185.4,-2179.8)">
            <circle cx="7247.14" cy="4792.36" r="265.842"/>
        </g>
        <g transform="matrix(-0.272935,-0.211902,0.211902,-0.272935,2045.12,4813.03)">
            <circle cx="7247.14" cy="4792.36" r="265.842"/>
        </g>
        <g transform="matrix(-0.295287,-0.17945,0.17945,-0.295287,2463.35,4006.39)">
            <circle cx="7247.14" cy="4792.36" r="265.842"/>
        </g>
        <g transform="matrix(-0.627144,0.258175,-0.258175,-0.627144,9327.5,2493.92)">
            <circle cx="7247.14" cy="4792.36" r="265.842"/>
        </g>
        <g transform="matrix(1.01769,0,0,1.01769,-4617.3,-3290.05)">
            <circle cx="7247.14" cy="4792.36" r="265.842"/>
        </g>
        <g transform="matrix(0.86147,0,0,0.86147,-4008.54,-3318.95)">
            <circle cx="7247.14" cy="4792.36" r="265.842"/>
        </g>
        <g transform="matrix(-0.413384,-0.320945,0.320945,-0.413384,1952.31,5594.12)">
            <circle cx="7247.14" cy="4792.36" r="265.842"/>
        </g>
        <g transform="matrix(0.0166365,-0.219376,0.219376,0.0166365,480.337,3426.06)">
            <circle cx="7247.14" cy="4792.36" r="265.842"/>
        </g>
        <g transform="matrix(-0.0585087,-0.16256,0.16256,-0.0585087,610.212,2927.43)">
            <circle cx="7247.14" cy="4792.36" r="265.842"/>
        </g>
        <g transform="matrix(-0.147643,-0.0897249,0.0897249,-0.147643,1768.16,2281.02)">
            <circle cx="7247.14" cy="4792.36" r="265.842"/>
        </g>
        <g transform="matrix(-0.320143,0.131793,-0.131793,-0.320143,6168.16,1765.25)">
            <circle cx="7247.14" cy="4792.36" r="265.842"/>
        </g>
        <g transform="matrix(0.255019,0,0,0.255019,403.066,187.135)">
            <circle cx="7247.14" cy="4792.36" r="265.842"/>
        </g>
        <g transform="matrix(0.329651,0,0,0.329651,-809.464,-1000.09)">
            <circle cx="7247.14" cy="4792.36" r="265.842"/>
        </g>
        <g transform="matrix(-0.158185,-0.122813,0.122813,-0.158185,1281.11,3289.58)">
            <circle cx="7247.14" cy="4792.36" r="265.842"/>
        </g>
        <g transform="matrix(0.176913,0,0,0.176913,1011.92,963.429)">
            <circle cx="7247.14" cy="4792.36" r="265.842"/>
        </g>
        <g transform="matrix(0.185707,0.133458,-0.133458,0.185707,991.182,-674.688)">
            <circle cx="7247.14" cy="4792.36" r="265.842"/>
        </g>
        <g transform="matrix(-0.0470487,-0.13072,0.13072,-0.0470487,649.553,2354.51)">
            <circle cx="7247.14" cy="4792.36" r="265.842"/>
        </g>
        <g transform="matrix(-0.138903,0.00264829,-0.00264829,-0.138903,1652.58,1632.75)">
            <circle cx="7247.14" cy="4792.36" r="265.842"/>
        </g>
        <g transform="matrix(-0.209047,0.0860579,-0.0860579,-0.209047,4858.26,1607.39)">
            <circle cx="7247.14" cy="4792.36" r="265.842"/>
        </g>
        <g transform="matrix(-0.166065,0.0683639,-0.0683639,-0.166065,3989.21,647.381)">
            <circle cx="7247.14" cy="4792.36" r="265.842"/>
        </g>
        <g transform="matrix(0.0192842,-0.254288,0.254288,0.0192842,777.383,3771.05)">
            <circle cx="7247.14" cy="4792.36" r="265.842"/>
        </g>
        <g transform="matrix(-0.0678201,-0.188431,0.188431,-0.0678201,962.561,2865.53)">
            <circle cx="7247.14" cy="4792.36" r="265.842"/>
        </g>
        <g transform="matrix(-0.200227,0.00381749,-0.00381749,-0.200227,2430.26,1595.87)">
            <circle cx="7247.14" cy="4792.36" r="265.842"/>
        </g>
        <g transform="matrix(-0.185186,0.0762352,-0.0762352,-0.185186,4826.59,1144.98)">
            <circle cx="7247.14" cy="4792.36" r="265.842"/>
        </g>
        <g transform="matrix(0.209724,-0.145087,0.145087,0.209724,-662.338,2145.42)">
            <circle cx="7247.14" cy="4792.36" r="265.842"/>
        </g>
        <g transform="matrix(-0.162977,-0.116379,0.116379,-0.162977,1910.88,3418.07)">
            <circle cx="7247.14" cy="4792.36" r="265.842"/>
        </g>
        <g transform="matrix(0.255019,0,0,0.255019,850.822,-137.442)">
            <circle cx="7247.14" cy="4792.36" r="265.842"/>
        </g>
        <g transform="matrix(0.329651,0,0,0.329651,-230.67,-1419.65)">
            <circle cx="7247.14" cy="4792.36" r="265.842"/>
        </g>
        <g transform="matrix(-0.158185,-0.122813,0.122813,-0.158185,847.062,3275.28)">
            <circle cx="7247.14" cy="4792.36" r="265.842"/>
        </g>
        <g transform="matrix(0.171527,0,0,0.171527,368.432,933.06)">
            <circle cx="7247.14" cy="4792.36" r="265.842"/>
        </g>
        <g transform="matrix(-0.10815,-0.300483,0.300483,-0.10815,284.539,4480.59)">
            <circle cx="7247.14" cy="4792.36" r="265.842"/>
        </g>
        <g transform="matrix(-0.0526513,-0.123982,0.123982,-0.0526513,1298.77,2120.05)">
            <circle cx="7247.14" cy="4792.36" r="265.842"/>
        </g>
        <g transform="matrix(-0.29488,0.121393,-0.121393,-0.29488,6162.08,1599.41)">
            <circle cx="7247.14" cy="4792.36" r="265.842"/>
        </g>
        <g transform="matrix(0.171527,0,0,0.171527,648.17,290.164)">
            <circle cx="7247.14" cy="4792.36" r="265.842"/>
        </g>
        <g transform="matrix(-0.106396,-0.0826044,0.0826044,-0.106396,1178.69,3107.62)">
            <circle cx="7247.14" cy="4792.36" r="265.842"/>
        </g>
        <g transform="matrix(0.171527,0,0,0.171527,808.164,525.301)">
            <circle cx="7247.14" cy="4792.36" r="265.842"/>
        </g>
        <g transform="matrix(0.221724,0,0,0.221724,-63.0959,-942.148)">
            <circle cx="7247.14" cy="4792.36" r="265.842"/>
        </g>
        <g transform="matrix(-0.181127,-0.140625,0.140625,-0.181127,1175.38,3725.39)">
            <circle cx="7247.14" cy="4792.36" r="265.842"/>
        </g>
        <g transform="matrix(0.131127,0,0,0.131127,225.908,160.171)">
            <circle cx="7247.14" cy="4792.36" r="265.842"/>
        </g>
        <g transform="matrix(0.174252,-0.140692,0.133409,0.165232,-1488.76,569.602)">
            <circle cx="7247.14" cy="4792.36" r="265.842"/>
        </g>
        <g transform="matrix(0.0651654,-0.113788,0.113788,0.0651654,1549.52,1203.81)">
            <circle cx="7247.14" cy="4792.36" r="265.842"/>
        </g>
        <g transform="matrix(-0.176981,-0.137406,0.137406,-0.176981,1715.3,4388.13)">
            <circle cx="7247.14" cy="4792.36" r="265.842"/>
        </g>
        <g transform="matrix(-0.0835516,0.0601876,-0.0601876,-0.0835516,2313.62,1721.51)">
            <circle cx="7247.14" cy="4792.36" r="265.842"/>
        </g>
        <g transform="matrix(-0.193156,0.0795163,-0.0795163,-0.193156,4496.1,2510.92)">
            <circle cx="7247.14" cy="4792.36" r="265.842"/>
        </g>
        <g transform="matrix(0.0489453,0.121649,-0.121649,0.0489453,1842.28,-22.9264)">
            <circle cx="7247.14" cy="4792.36" r="265.842"/>
        </g>
        <g transform="matrix(0.174252,-0.140692,0.133409,0.165232,-1107.4,641.909)">
            <circle cx="7247.14" cy="4792.36" r="265.842"/>
        </g>
        <g transform="matrix(0.0651654,-0.113788,0.113788,0.0651654,1781.16,1166.91)">
            <circle cx="7247.14" cy="4792.36" r="265.842"/>
        </g>
        <g transform="matrix(-0.133108,-0.103343,0.103343,-0.133108,1707.63,3693.92)">
            <circle cx="7247.14" cy="4792.36" r="265.842"/>
        </g>
        <g transform="matrix(-0.228638,-0.138947,0.138947,-0.228638,2202.99,3731.3)">
            <circle cx="7247.14" cy="4792.36" r="265.842"/>
        </g>
        <g transform="matrix(-0.27568,0.113489,-0.113489,-0.27568,5058.76,2556.22)">
            <circle cx="7247.14" cy="4792.36" r="265.842"/>
        </g>
        <g transform="matrix(0.131127,0,0,0.131127,770.181,-8.49962)">
            <circle cx="7247.14" cy="4792.36" r="265.842"/>
        </g>
        <g transform="matrix(-0.186829,-0.145052,0.145052,-0.186829,1331.19,4333.25)">
            <circle cx="7247.14" cy="4792.36" r="265.842"/>
        </g>
        <g transform="matrix(0.131127,0,0,0.131127,798.995,295.691)">
            <circle cx="7247.14" cy="4792.36" r="265.842"/>
        </g>
        <g transform="matrix(-0.157299,-0.122124,0.122124,-0.157299,1442.55,3901.17)">
            <circle cx="7247.14" cy="4792.36" r="265.842"/>
        </g>
        <g transform="matrix(0.131127,0,0,0.131127,1199.39,114.333)">
            <circle cx="7247.14" cy="4792.36" r="265.842"/>
        </g>
        <g transform="matrix(-0.214726,-0.16671,0.16671,-0.214726,1132.29,4303.95)">
            <circle cx="7247.14" cy="4792.36" r="265.842"/>
        </g>
        <g transform="matrix(0.0611017,0,0,0.0611017,1625.67,603.688)">
            <circle cx="7247.14" cy="4792.36" r="265.842"/>
        </g>
        <g transform="matrix(-0.157642,-0.122391,0.122391,-0.157642,1145.61,3689.98)">
            <circle cx="7247.14" cy="4792.36" r="265.842"/>
        </g>
    </g>
</svg>
