<?xml version="1.0" encoding="UTF-8" standalone="no"?>
<!DOCTYPE svg PUBLIC "-//W3C//DTD SVG 1.1//EN" "http://www.w3.org/Graphics/SVG/1.1/DTD/svg11.dtd">
<svg width="100%" height="100%" viewBox="0 0 16138 10971" version="1.1" xmlns="http://www.w3.org/2000/svg" xmlns:xlink="http://www.w3.org/1999/xlink" xml:space="preserve" xmlns:serif="http://www.serif.com/" style="fill-rule:evenodd;clip-rule:evenodd;stroke-linejoin:round;stroke-miterlimit:2;">
    <g transform="matrix(4.16667,0,0,4.16667,0,0)">
        <path d="M354.213,91.714C208.948,91.714 90.8,209.908 90.8,355.173L90.8,2278.75C90.8,2424 208.979,2542.2 354.213,2542.2L3518.59,2542.2C3663.8,2542.2 3781.97,2424 3781.97,2278.75L3781.97,355.173C3781.97,209.908 3663.84,91.714 3518.62,91.714L354.213,91.714ZM3518.59,2633L354.213,2633C158.916,2633 0,2474.05 0,2278.75L0,355.173C0,159.876 158.9,0.96 354.183,0.96L3518.56,0.96C3713.85,0.96 3872.77,159.86 3872.77,355.173L3872.77,2278.75C3872.77,2474.05 3713.88,2633 3518.59,2633Z" style="fill:rgb(3,4,4);"/>
        <path d="M3823.7,2371.55L49.078,2371.55C24.023,2371.55 3.678,2351.21 3.678,2326.18C3.678,2301.16 24.023,2280.78 49.078,2280.78L3823.74,2280.78C3848.79,2280.78 3869.1,2301.16 3869.1,2326.18C3869.1,2351.21 3848.76,2371.55 3823.7,2371.55Z" style="fill:rgb(3,4,4);"/>
        <path d="M1340.49,577.71L2532.25,577.71L2844.69,91.714L1028.07,91.714L1340.49,577.71ZM2557.06,668.48L1315.73,668.48C1300.29,668.48 1285.92,660.631 1277.56,647.642L906.771,70.892C897.784,56.933 897.152,39.173 905.109,24.584C913.05,10.025 928.333,0.96 944.938,0.96L2927.89,0.96C2944.45,0.96 2959.78,10.025 2967.72,24.584C2975.69,39.142 2975.02,56.887 2966.06,70.892L2595.22,647.642C2586.85,660.631 2572.48,668.48 2557.06,668.48Z" style="fill:rgb(3,4,4);"/>
        <path d="M758.521,978.063C697.469,978.063 647.806,1027.74 647.806,1088.79L647.806,1860.46C647.806,1921.55 697.469,1971.17 758.521,1971.17L3114.23,1971.17C3175.3,1971.17 3224.95,1921.52 3224.95,1860.46L3224.95,1088.79C3224.95,1027.74 3175.3,978.063 3114.23,978.063L758.521,978.063ZM3114.26,2061.97L758.521,2061.97C647.421,2061.97 557.037,1971.57 557.037,1860.46L557.037,1088.79C557.037,977.693 647.421,887.309 758.521,887.309L3114.23,887.309C3225.35,887.309 3315.75,977.693 3315.75,1088.79L3315.75,1860.46C3315.75,1971.57 3225.38,2061.97 3114.26,2061.97Z" style="fill:rgb(3,4,4);"/>
        <path d="M1065.99,1229.98C931.241,1229.98 821.634,1339.6 821.634,1474.32C821.634,1609.08 931.241,1718.68 1065.99,1718.68L2806.77,1718.68C2941.53,1718.68 3051.13,1609.08 3051.13,1474.36C3051.13,1339.6 2941.53,1229.99 2806.77,1229.99L1065.99,1229.98ZM2806.84,1809.48L1065.99,1809.48C881.193,1809.48 730.865,1659.13 730.865,1474.32C730.865,1289.54 881.208,1139.23 1065.99,1139.23L2806.77,1139.23C2991.57,1139.23 3141.93,1289.55 3141.93,1474.32C3141.93,1659.13 2991.61,1809.48 2806.84,1809.48Z" style="fill:rgb(3,4,4);"/>
        <path d="M1066.3,1229.98C931.41,1229.98 821.634,1339.72 821.634,1474.66C821.634,1609.57 931.379,1719.33 1066.3,1719.33C1201.24,1719.33 1310.94,1609.57 1310.94,1474.66C1310.94,1339.72 1201.19,1229.98 1066.3,1229.98ZM1066.3,1810.07C881.362,1810.07 730.865,1659.59 730.865,1474.6C730.865,1289.65 881.332,1139.23 1066.3,1139.23C1251.29,1139.23 1401.71,1289.68 1401.71,1474.66C1401.71,1659.65 1251.24,1810.07 1066.3,1810.07Z" style="fill:rgb(3,4,4);"/>
        <path d="M1066.3,1328.71C1041.26,1328.71 1020.92,1308.36 1020.92,1283.31L1020.92,1184.59C1020.92,1159.56 1041.26,1139.23 1066.3,1139.23C1091.36,1139.23 1111.7,1159.56 1111.7,1184.59L1111.7,1283.31C1111.66,1308.36 1091.36,1328.71 1066.3,1328.71Z" style="fill:rgb(3,4,4);"/>
        <path d="M1201.58,1384.72C1189.94,1384.72 1178.34,1380.29 1169.46,1371.43C1151.75,1353.67 1151.75,1324.95 1169.46,1307.22L1239.28,1237.44C1257.03,1219.73 1285.73,1219.73 1303.48,1237.44C1321.19,1255.19 1321.19,1283.91 1303.48,1301.65L1233.67,1371.43C1224.8,1380.29 1213.21,1384.72 1201.58,1384.72Z" style="fill:rgb(3,4,4);"/>
        <path d="M1356.32,1520.03L1257.61,1520.03C1232.56,1520.03 1212.23,1499.69 1212.23,1474.66C1212.23,1449.64 1232.56,1429.26 1257.61,1429.26L1356.32,1429.26C1381.38,1429.26 1401.71,1449.64 1401.71,1474.66C1401.71,1499.69 1381.38,1520.03 1356.32,1520.03Z" style="fill:rgb(3,4,4);"/>
        <path d="M1271.37,1725.12C1259.75,1725.12 1248.15,1720.65 1239.3,1711.79L1169.49,1642.01C1151.75,1624.28 1151.75,1595.57 1169.49,1577.87C1187.24,1560.08 1215.94,1560.11 1233.7,1577.84L1303.51,1647.61C1321.27,1665.34 1321.27,1694.06 1303.51,1711.76C1294.61,1720.65 1282.99,1725.12 1271.37,1725.12Z" style="fill:rgb(3,4,4);"/>
        <path d="M1066.3,1810.07C1041.26,1810.07 1020.92,1789.72 1020.92,1764.7L1020.92,1665.96C1020.92,1640.9 1041.26,1620.59 1066.3,1620.59C1091.36,1620.59 1111.7,1640.93 1111.7,1665.96L1111.7,1764.7C1111.66,1789.75 1091.36,1810.07 1066.3,1810.07Z" style="fill:rgb(3,4,4);"/>
        <path d="M861.202,1725.12C849.567,1725.12 837.979,1720.65 829.083,1711.79C811.369,1694.06 811.369,1665.31 829.083,1647.61L898.861,1577.84C916.621,1560.08 945.323,1560.08 963.067,1577.84C980.781,1595.57 980.781,1624.31 963.067,1642.01L893.29,1711.79C884.425,1720.65 872.821,1725.12 861.202,1725.12Z" style="fill:rgb(3,4,4);"/>
        <path d="M874.929,1520.03L776.25,1520.03C751.21,1520.03 730.865,1499.69 730.865,1474.66C730.865,1449.64 751.21,1429.26 776.25,1429.26L874.929,1429.26C899.984,1429.26 920.314,1449.64 920.314,1474.66C920.314,1499.69 900.015,1520.03 874.929,1520.03Z" style="fill:rgb(3,4,4);"/>
        <path d="M930.995,1384.72C919.375,1384.72 907.771,1380.29 898.922,1371.43L829.145,1301.6C811.4,1283.91 811.4,1255.16 829.145,1237.44C846.889,1219.68 875.591,1219.68 893.32,1237.44L963.083,1307.22C980.842,1324.95 980.842,1353.67 963.083,1371.43C954.187,1380.29 942.599,1384.72 930.995,1384.72Z" style="fill:rgb(3,4,4);"/>
        <path d="M2806.5,1229.98C2671.62,1229.98 2561.83,1339.72 2561.83,1474.66C2561.83,1609.57 2671.56,1719.33 2806.5,1719.33C2941.44,1719.33 3051.16,1609.57 3051.16,1474.66C3051.16,1339.72 2941.4,1229.98 2806.5,1229.98ZM2806.5,1810.07C2621.57,1810.07 2471.03,1659.59 2471.03,1474.6C2471.03,1289.65 2621.57,1139.23 2806.5,1139.23C2991.42,1139.23 3141.96,1289.68 3141.96,1474.66C3141.96,1659.65 2991.45,1810.07 2806.5,1810.07Z" style="fill:rgb(3,4,4);"/>
        <path d="M2806.5,1328.71C2781.44,1328.71 2761.13,1308.36 2761.13,1283.31L2761.13,1184.59C2761.13,1159.56 2781.47,1139.23 2806.5,1139.23C2831.52,1139.23 2851.9,1159.56 2851.9,1184.59L2851.9,1283.31C2851.9,1308.36 2831.55,1328.71 2806.5,1328.71Z" style="fill:rgb(3,4,4);"/>
        <path d="M2941.8,1384.72C2930.2,1384.72 2918.57,1380.29 2909.7,1371.43C2891.97,1353.67 2891.94,1324.98 2909.7,1307.22L2979.48,1237.44C2997.21,1219.68 3025.96,1219.73 3043.69,1237.44C3061.38,1255.19 3061.41,1283.91 3043.69,1301.65L2973.91,1371.46C2965.04,1380.29 2953.41,1384.72 2941.8,1384.72Z" style="fill:rgb(3,4,4);"/>
        <path d="M3096.56,1520.03L2997.82,1520.03C2972.77,1520.03 2952.42,1499.69 2952.42,1474.66C2952.42,1449.64 2972.8,1429.26 2997.82,1429.26L3096.56,1429.26C3121.62,1429.26 3141.93,1449.64 3141.93,1474.66C3141.93,1499.69 3121.62,1520.03 3096.56,1520.03Z" style="fill:rgb(3,4,4);"/>
        <path d="M3011.58,1725.12C2999.98,1725.12 2988.34,1720.65 2979.48,1711.79L2909.7,1642.01C2891.94,1624.28 2891.94,1595.54 2909.7,1577.84C2927.43,1560.11 2956.18,1560.08 2973.91,1577.84L3043.69,1647.61C3061.41,1665.34 3061.41,1694.09 3043.69,1711.79C3034.82,1720.65 3023.19,1725.12 3011.58,1725.12Z" style="fill:rgb(3,4,4);"/>
        <path d="M2806.5,1810.07C2781.44,1810.07 2761.13,1789.72 2761.13,1764.7L2761.13,1665.96C2761.13,1640.9 2781.47,1620.59 2806.5,1620.59C2831.52,1620.59 2851.9,1640.93 2851.9,1665.96L2851.9,1764.7C2851.9,1789.75 2831.55,1810.07 2806.5,1810.07Z" style="fill:rgb(3,4,4);"/>
        <path d="M2601.41,1725.12C2589.84,1725.12 2578.2,1720.65 2569.31,1711.79C2551.55,1694.06 2551.55,1665.31 2569.31,1647.61L2639.09,1577.84C2656.85,1560.08 2685.59,1560.08 2703.29,1577.84C2721.02,1595.57 2721.05,1624.31 2703.29,1642.01L2633.51,1711.79C2624.65,1720.65 2613.02,1725.12 2601.41,1725.12Z" style="fill:rgb(3,4,4);"/>
        <path d="M2615.17,1520.03L2516.46,1520.03C2491.4,1520.03 2471.06,1499.69 2471.06,1474.66C2471.06,1449.64 2491.44,1429.26 2516.46,1429.26L2615.17,1429.26C2640.22,1429.26 2660.57,1449.64 2660.57,1474.66C2660.57,1499.69 2640.19,1520.03 2615.17,1520.03Z" style="fill:rgb(3,4,4);"/>
        <path d="M2671.22,1384.72C2659.62,1384.72 2647.98,1380.29 2639.09,1371.43L2569.31,1301.6C2551.55,1283.87 2551.61,1255.16 2569.31,1237.41C2587.07,1219.68 2615.82,1219.68 2633.51,1237.41L2703.29,1307.19C2721.05,1324.95 2721.02,1353.64 2703.29,1371.4C2694.43,1380.29 2682.79,1384.72 2671.22,1384.72Z" style="fill:rgb(3,4,4);"/>
        <path d="M1283.21,280.825C1258.15,280.825 1237.81,260.495 1237.81,235.44L1237.81,46.345C1237.81,21.29 1258.15,0.96 1283.21,0.96C1308.25,0.96 1328.59,21.29 1328.59,46.345L1328.59,235.44C1328.59,260.525 1308.26,280.825 1283.21,280.825Z" style="fill:rgb(3,4,4);"/>
        <path d="M1609.81,280.825C1584.76,280.825 1564.43,260.495 1564.43,235.44L1564.43,46.345C1564.43,21.29 1584.76,0.96 1609.81,0.96C1634.85,0.96 1655.2,21.29 1655.2,46.345L1655.2,235.44C1655.2,260.525 1634.88,280.825 1609.81,280.825Z" style="fill:rgb(3,4,4);"/>
        <path d="M1936.38,280.825C1911.33,280.825 1891,260.495 1891,235.44L1891,46.345C1891,21.29 1911.33,0.96 1936.38,0.96C1961.44,0.96 1981.78,21.29 1981.78,46.345L1981.78,235.44C1981.78,260.525 1961.44,280.825 1936.38,280.825Z" style="fill:rgb(3,4,4);"/>
        <path d="M2262.99,280.825C2237.93,280.825 2217.62,260.495 2217.62,235.44L2217.62,46.345C2217.62,21.29 2237.96,0.96 2262.99,0.96C2288.01,0.96 2308.39,21.29 2308.39,46.345L2308.39,235.44C2308.39,260.525 2288.04,280.825 2262.99,280.825Z" style="fill:rgb(3,4,4);"/>
        <path d="M2589.56,280.825C2564.51,280.825 2544.19,260.495 2544.19,235.44L2544.19,46.345C2544.19,21.29 2564.54,0.96 2589.56,0.96C2614.62,0.96 2634.96,21.29 2634.96,46.345L2634.96,235.44C2634.96,260.525 2614.65,280.825 2589.56,280.825Z" style="fill:rgb(3,4,4);"/>
    </g>
</svg>
