<?xml version="1.0" encoding="UTF-8" standalone="no"?>
<!DOCTYPE svg PUBLIC "-//W3C//DTD SVG 1.1//EN" "http://www.w3.org/Graphics/SVG/1.1/DTD/svg11.dtd">
<svg width="100%" height="100%" viewBox="0 0 81 81" version="1.1" xmlns="http://www.w3.org/2000/svg" xmlns:xlink="http://www.w3.org/1999/xlink" xml:space="preserve" xmlns:serif="http://www.serif.com/" style="fill-rule:evenodd;clip-rule:evenodd;stroke-linecap:round;stroke-linejoin:round;stroke-miterlimit:1.5;">
    <g transform="matrix(1.00854,0,0,1.28058,-1.52426,-6.6114)">
        <path d="M19.847,40.504C22.441,40.591 21.896,42.901 24.573,42.759C28.569,42.545 28.044,31.812 30.885,31.738C33.725,31.663 33.238,47.546 37.011,47.639C40.376,47.722 39.691,25.144 43.253,25.108C46.814,25.071 46.739,45.275 50.281,43.726C52.43,42.785 52.741,32.391 54.725,32.17C55.9,32.038 57.327,42.189 60.02,40.5C63.025,38.615 62.735,40.306 64.603,40.5" style="fill:none;stroke:black;stroke-width:0.87px;"/>
    </g>
    <g transform="matrix(0.678233,0,0,3.74074,18.394,-129.4)">
        <path d="M66.697,46.792L66.697,46.589L73.44,46.589L68.888,45.764L69.762,45.605L75.748,46.691L69.762,47.776L68.888,47.617L73.44,46.792L66.697,46.792Z" style="stroke:black;stroke-width:0.09px;"/>
    </g>
    <g transform="matrix(-0.678233,-8.30596e-17,4.58109e-16,-3.74074,63.7282,219.914)">
        <path d="M66.697,46.792L66.697,46.589L73.44,46.589L68.888,45.764L69.762,45.605L75.748,46.691L69.762,47.776L68.888,47.617L73.44,46.792L66.697,46.792Z" style="stroke:black;stroke-width:0.09px;"/>
    </g>
</svg>
