<?xml version="1.0" encoding="UTF-8" standalone="no"?>
<!DOCTYPE svg PUBLIC "-//W3C//DTD SVG 1.1//EN" "http://www.w3.org/Graphics/SVG/1.1/DTD/svg11.dtd">
<svg width="100%" height="100%" viewBox="0 0 81 81" version="1.1" xmlns="http://www.w3.org/2000/svg" xmlns:xlink="http://www.w3.org/1999/xlink" xml:space="preserve" xmlns:serif="http://www.serif.com/" style="fill-rule:evenodd;clip-rule:evenodd;">
    <path d="M78,40.5C78,19.803 61.197,3 40.5,3C19.803,3 3,19.803 3,40.5C3,61.197 19.803,78 40.5,78C61.197,78 78,61.197 78,40.5Z" style="fill:none;stroke:black;stroke-width:6px;"/>
    <path d="M50.214,24L50.214,28.536L23,28.536L23,33.071L50.214,33.071L50.214,37.607L59.286,30.804L50.214,24ZM32.071,42.143L23,48.946L32.071,55.75L32.071,51.214L59.286,51.214L59.286,46.679L32.071,46.679L32.071,42.143Z" style="fill-rule:nonzero;"/>
</svg>
